<svg xmlns="http://www.w3.org/2000/svg" width="439" height="106" viewBox="0 0 439 106"><g><g><path fill="#231f20" d="M14.45 72.25c-1.57 1.885-3.77 2.827-5.968 2.827-2.2 0-4.084-.628-5.655-2.199-1.57-1.57-2.199-3.455-2.199-5.654 0-1.885.629-3.456 1.57-4.712L42.094 8.796a23.232 23.232 0 0 1 7.225-6.283C52.46.943 55.601 0 59.056 0c3.142 0 6.283.628 9.424 2.199 2.828 1.57 5.34 3.455 7.225 5.968L115.6 61.57c.628.629 1.256 1.571 1.57 2.514.315.942.629 1.884.629 3.14 0 2.2-.628 4.085-2.2 5.655-1.57 1.57-3.455 2.2-5.653 2.2-2.513 0-4.712-.943-6.283-3.142l-38.01-50.89-2.827-2.826c-1.256-.943-2.199-1.571-3.455-1.571-1.257 0-2.513.628-3.456 1.57-1.256.943-2.199 1.885-2.827 2.828z"/></g><g><path fill="#231f20" d="M272.665 67.224c0 2.199-.628 4.084-2.199 5.654-1.57 1.57-3.455 2.2-5.654 2.2-2.2 0-4.084-.63-5.655-2.2-1.57-1.57-2.198-3.455-2.198-5.654V31.413c0-4.398-.315-6.597-.943-6.597-.314 0-1.885 1.57-4.712 4.398l-35.81 40.837c-1.571 1.57-3.142 2.827-5.34 3.77-2.2.942-4.399 1.256-6.598 1.256-2.513 0-4.712-.314-6.596-1.256-2.2-.943-3.77-2.2-5.34-3.77l-36.126-40.837c-2.513-2.827-4.083-4.398-4.711-4.398-.629 0-.943 2.2-.943 6.597v35.81c0 2.2-.628 4.085-2.199 5.655-1.57 1.57-3.455 2.2-5.654 2.2s-4.084-.63-5.654-2.2c-1.571-1.57-2.2-3.455-2.2-5.654V19.476c0-4.398 1.257-8.167 3.77-10.994 2.513-3.142 5.969-4.712 10.366-4.712 2.514 0 5.027.628 6.911 1.884 2.2 1.257 4.084 2.828 5.655 4.712l37.695 43.036c.629.628 1.257 1.257 2.2 1.57.942.629 1.57.943 2.512.943.943 0 1.57-.314 2.513-.942.943-.628 1.571-1.257 2.2-1.57l37.695-43.037h.314c1.256-2.199 3.141-3.77 5.34-5.026 2.2-1.256 4.712-1.885 7.225-1.885 4.398 0 7.853 1.571 10.367 4.712 2.513 3.142 3.769 6.911 3.769 10.995z"/></g><g><path fill="#cf3339" d="M302.507 72.878c-1.57 1.57-3.455 2.2-5.654 2.2s-4.084-.63-5.654-2.2c-1.257-1.57-2.2-3.455-2.2-5.654V11.623c0-2.2.629-4.084 2.2-5.655 1.884-1.57 3.455-2.513 5.654-2.513s4.084.629 5.654 2.2c1.571 1.884 2.2 3.769 2.2 5.968v55.915c0 1.885-.629 3.77-2.2 5.34"/></g><g><path fill="#231f20" d="M335.177 72.25c-1.57 1.885-3.77 2.827-5.969 2.827-2.198 0-4.083-.628-5.654-2.199-1.57-1.57-2.199-3.455-2.199-5.654 0-1.885.628-3.456 1.57-4.712L362.82 8.796a23.232 23.232 0 0 1 7.225-6.283C373.187.943 376.328 0 379.783 0c3.142 0 6.283.628 9.424 2.199 2.827 1.57 5.34 3.455 7.225 5.968l39.895 53.402c.628.629 1.256 1.571 1.57 2.514.315.942.629 1.884.629 3.14 0 2.2-.629 4.085-2.2 5.655-1.57 1.57-3.455 2.2-5.654 2.2-2.513 0-4.711-.943-6.282-3.142l-38.01-50.89c-.628-.942-1.57-1.884-2.827-2.826-1.257-.943-2.199-1.571-3.455-1.571-1.257 0-2.514.628-3.456 1.57-1.256.943-2.199 1.885-2.827 2.828z"/></g><g><path fill="#cf3339" d="M0 105.548V93.61h2.513v11.937z"/></g><g><path fill="#cf3339" d="M5.34 93.61h2.513l4.712 8.168v-8.167h2.513v11.937h-2.513L7.54 97.694v7.854H5.34z"/></g><g><path fill="#cf3339" d="M17.905 93.61h8.168v2.2h-5.655v2.827h4.712v1.885h-4.712v5.026h-2.513z"/></g><g><path fill="#cf3339" d="M32.984 93.61c3.77 0 5.654 2.828 5.654 6.283 0 3.456-2.199 5.969-5.654 5.969-3.77 0-5.655-2.827-5.655-5.969 0-3.77 2.2-6.282 5.655-6.282zm0 10.053c2.199 0 3.141-1.885 3.141-4.084s-.942-4.083-3.141-4.083c-2.2 0-3.142 1.884-3.142 4.083z"/></g><g><path fill="#cf3339" d="M41.465 93.61h-.314zm5.969 0c2.199 0 3.455 1.571 3.455 3.142 0 1.257-.628 2.513-1.885 2.827 1.257.314 1.571 1.57 1.571 2.827 0 .629 0 2.2.628 2.828H48.69c-.314-.629-.314-1.885-.314-2.828-.314-1.256-.628-1.884-1.885-1.884h-2.513v4.712h-2.513V93.61zm-3.77 5.341h2.827c1.257 0 1.885-.628 1.885-1.57 0-1.257-.628-1.571-1.885-1.571h-2.827z"/></g><g><path fill="#cf3339" d="M53.402 93.61h3.456l2.827 8.168 2.513-8.167h3.77v11.937h-2.514v-8.482l-2.827 8.482h-1.885l-3.141-8.168v8.168h-2.199z"/></g><g><path fill="#cf3339" d="M71.622 93.61h2.513l4.398 11.938h-2.828l-.314-2.513h-4.398l-.942 2.513h-2.513zm0 7.226h3.141l-1.57-4.398z"/></g><g><path fill="#cf3339" d="M82.93 95.81h-3.77v-2.2H88.9v2.2h-3.456v9.738H82.93z"/></g><g><path fill="#cf3339" d="M90.47 105.548V93.61h2.513v11.937z"/></g><g><path fill="#cf3339" d="M103.663 97.694c-.314-1.256-1.257-2.198-2.513-2.198-2.199 0-3.141 1.884-3.141 4.083 0 1.885.942 4.084 3.14 4.084 1.572 0 2.514-.942 2.828-2.513h2.513c-.314 2.827-2.199 4.712-5.026 4.712-3.77 0-5.654-2.827-5.654-5.969 0-3.455 2.199-6.282 5.654-6.282 2.513 0 4.712 1.57 5.026 4.083z"/></g><g><path fill="#cf3339" d="M110.26 101.464c0 1.57 1.256 2.199 2.513 2.199.942 0 2.199-.314 2.199-1.57 0-1.257-1.885-1.571-3.456-1.886-1.885-.314-3.455-1.256-3.455-3.455 0-2.513 2.199-3.455 4.398-3.455 2.513 0 4.712.942 4.712 3.77h-2.513c0-1.571-.943-1.886-2.2-1.886-.942 0-1.884.315-1.884 1.257s.628.942 3.455 1.885c.943.314 3.456.628 3.456 3.455 0 2.199-1.571 3.77-5.026 3.77-2.513 0-5.026-1.257-5.026-4.084z"/></g><g><path fill="#231f20" d="M124.396 93.61h5.34c2.827 0 4.083 1.886 4.083 3.77 0 1.885-1.256 3.77-4.083 3.77h-2.827v4.084h-2.513zm2.513 5.655h1.884c1.257 0 2.2-.314 2.2-1.885 0-1.57-.943-1.884-2.2-1.884h-1.884z"/></g><g><path fill="#231f20" d="M135.704 93.61h6.283c2.199 0 3.455 1.571 3.455 3.142 0 1.257-.628 2.513-1.885 2.827 1.257.314 1.571 1.57 1.571 2.827 0 .629 0 2.2.628 2.828h-2.513c-.314-.629-.314-1.885-.314-2.828-.314-1.256-.628-1.884-1.885-1.884h-2.827v4.712h-2.513zm2.513 5.341h2.827c1.257 0 1.885-.628 1.885-1.57 0-1.257-.628-1.571-1.885-1.571h-2.827z"/></g><g><path fill="#231f20" d="M153.296 93.61c3.77 0 5.654 2.828 5.654 6.283 0 3.456-2.199 5.969-5.654 5.969-3.77 0-5.655-2.827-5.655-5.969-.314-3.77 1.885-6.282 5.655-6.282zm0 10.053c2.198 0 3.14-1.885 3.14-4.084s-.942-4.083-3.14-4.083c-2.2 0-3.142 1.884-3.142 4.083z"/></g><g><path fill="#231f20" d="M161.149 93.61h8.167v2.2h-5.654v2.827h5.026v1.885h-5.026v5.026h-2.513z"/></g><g><path fill="#231f20" d="M171.2 93.61h8.797v2.2h-6.283v2.513h5.654v2.199h-5.654v2.827h6.283v2.199H171.2z"/></g><g><path fill="#231f20" d="M184.08 101.464c0 1.57 1.257 2.199 2.513 2.199.943 0 2.2-.314 2.2-1.57 0-1.257-1.886-1.571-3.456-1.886-1.885-.314-3.456-1.256-3.456-3.455 0-2.513 2.2-3.455 4.398-3.455 2.513 0 4.712.942 4.712 3.77h-2.513c0-1.571-.942-1.886-2.199-1.886-.942 0-1.885.315-1.885 1.257s.629.942 3.456 1.885c.942.314 3.455.628 3.455 3.455 0 2.199-1.57 3.77-5.026 3.77-2.513 0-5.026-1.257-5.026-4.084z"/></g><g><path fill="#231f20" d="M195.075 101.464c0 1.57 1.256 2.199 2.513 2.199.942 0 2.199-.314 2.199-1.57 0-1.257-1.885-1.571-3.456-1.886-1.884-.314-3.455-1.256-3.455-3.455 0-2.513 2.199-3.455 4.398-3.455 2.513 0 4.712.942 4.712 3.77h-2.513c0-1.571-.943-1.886-2.2-1.886-.942 0-1.884.315-1.884 1.257s.628.942 3.455 1.885c.943.314 3.456.628 3.456 3.455 0 2.199-1.57 3.77-5.026 3.77-2.513 0-5.026-1.257-5.026-4.084z"/></g><g><path fill="#231f20" d="M204.185 105.548V93.61h2.513v11.937z"/></g><g><path fill="#231f20" d="M214.55 93.61c3.77 0 5.655 2.828 5.655 6.283 0 3.456-2.199 5.969-5.654 5.969-3.77 0-5.654-2.827-5.654-5.969 0-3.77 2.198-6.282 5.654-6.282zm0 10.053c2.2 0 3.142-1.885 3.142-4.084s-.942-4.083-3.141-4.083-3.141 1.884-3.141 4.083z"/></g><g><path fill="#231f20" d="M222.718 93.61h2.513l4.712 8.168h.314v-8.167h2.2v11.937h-2.514l-5.026-7.854v7.854h-2.199z"/></g><g><path fill="#231f20" d="M238.425 93.61h2.513l4.398 11.938h-2.827l-.629-2.513h-4.398l-.942 2.513h-2.513zm-.314 7.226h3.141l-1.57-4.398z"/></g><g><path fill="#231f20" d="M246.906 93.61h2.513v9.739h5.655v2.199h-8.168z"/></g><g><path fill="#231f20" d="M258.53 101.464c0 1.57 1.256 2.199 2.512 2.199.943 0 2.2-.314 2.2-1.57 0-1.257-1.886-1.571-3.456-1.886-1.885-.314-3.456-1.256-3.456-3.455 0-2.513 2.2-3.455 4.398-3.455 2.513 0 4.712.942 4.712 3.77h-2.513c0-1.571-.942-1.886-2.199-1.886-.942 0-1.885.315-1.885 1.257s.629.942 3.456 1.885c.942.314 3.455.628 3.455 3.455 0 2.199-1.57 3.77-5.026 3.77-2.513 0-5.026-1.257-5.026-4.084z"/></g><g><path fill="#231f20" d="M267.639 105.548v-2.513h2.513v2.513z"/></g><g><path fill="#231f20" d="M277.691 93.61h2.513v9.739h5.969v2.199h-8.482z"/></g><g><path fill="#231f20" d="M287.743 93.61h8.796v2.2h-5.969v2.513h5.655v2.199h-5.655v2.827h6.283v2.199h-9.11z"/></g><g><path fill="#231f20" d="M302.193 93.61h2.513l4.398 11.938h-2.827l-.942-2.513h-4.398l-.943 2.513h-2.513zm-.314 7.226h3.141l-1.57-4.398z"/></g><g><path fill="#231f20" d="M310.36 93.61h5.027c3.141 0 5.34 1.886 5.34 5.97 0 3.455-1.885 5.968-5.34 5.968h-5.026zm5.027 9.739c1.57 0 2.827-.943 2.827-3.456s-.943-3.77-3.456-3.77h-1.884v7.226z"/></g><g><path fill="#231f20" d="M322.926 105.548V93.61h2.513v11.937z"/></g><g><path fill="#231f20" d="M328.266 93.61h2.513l5.026 8.168v-8.167h2.513v11.937h-2.827l-4.712-7.854v7.854h-2.513z"/></g><g><path fill="#231f20" d="M349.313 104.291c-.943 1.257-2.2 1.57-3.142 1.57-3.77 0-5.654-2.826-5.654-5.968 0-3.455 2.199-6.282 5.654-6.282 2.513 0 4.712 1.57 5.027 4.083h-2.514c-.314-1.256-1.256-1.884-2.513-1.884-2.198 0-3.14 1.884-3.14 4.083 0 1.885.942 4.084 3.14 4.084 1.571 0 2.513-.942 2.828-2.513h-2.513v-1.885h5.026v6.283h-1.571z"/></g><g><path fill="#231f20" d="M361.25 95.81h-3.456v-2.2h9.424v2.2h-3.455v9.738h-2.513z"/></g><g><path fill="#231f20" d="M369.103 93.61h2.513v4.713h4.712V93.61h2.513v11.937h-2.513v-5.026h-4.712v5.026h-2.513z"/></g><g><path fill="#231f20" d="M381.668 93.61h8.796v2.2h-6.283v2.513h5.655v2.199h-5.655v2.827h6.283v2.199h-8.796z"/></g><g><path fill="#231f20" d="M408.683 105.548h-2.513l-2.199-8.168-1.884 8.168h-2.513l-3.142-11.937h2.513l1.885 8.167 2.2-8.167h2.198l2.199 8.167 1.885-8.167h2.513z"/></g><g><path fill="#231f20" d="M416.537 93.61h2.513l4.398 11.938h-2.514l-.942-2.513h-4.398l-.942 2.513h-2.513zm-.314 7.226h3.14l-1.57-4.398z"/></g><g><path fill="#231f20" d="M428.16 100.836l-4.398-7.225h2.827l2.827 4.712 2.827-4.712h2.827l-4.397 7.539v4.398h-2.514z"/></g><g><path fill="#231f20" d="M436.327 105.548v-2.513h2.513v2.513z"/></g></g></svg>